<?xml version="1.0" standalone="no"?>
<!DOCTYPE svg PUBLIC "-//W3C//DTD SVG 20010904//EN"
 "http://www.w3.org/TR/2001/REC-SVG-20010904/DTD/svg10.dtd">
<svg version="1.0" xmlns="http://www.w3.org/2000/svg"
 width="205.000000pt" height="205.000000pt" viewBox="0 0 205.000000 205.000000"
 preserveAspectRatio="xMidYMid meet">
<metadata>
Created by potrace 1.12, written by Peter Selinger 2001-2015
</metadata>
<g transform="translate(0.000000,205.000000) scale(0.100000,-0.100000)"
fill="#000000" stroke="none">
<path d="M0 1025 l0 -1025 1025 0 1025 0 0 1025 0 1025 -1025 0 -1025 0 0
-1025z m1410 301 c210 -362 384 -664 386 -670 3 -8 -212 -11 -781 -11 -432 0
-785 2 -785 4 0 16 784 1350 790 1344 4 -4 179 -305 390 -667z m-851 18 c-188
-324 -345 -593 -350 -599 -5 -5 -9 140 -9 342 l0 352 347 250 c190 138 348
249 350 247 2 -2 -150 -268 -338 -592z m934 338 l337 -244 0 -351 c0 -202 -4
-347 -9 -342 -11 12 -691 1184 -691 1191 0 8 9 2 363 -254z m252 -1111 c-6 -5
-152 -111 -325 -236 -173 -125 -335 -242 -360 -260 l-45 -33 -362 261 c-199
144 -365 265 -369 270 -4 4 325 7 731 7 436 0 735 -4 730 -9z"/>
</g>
</svg>
