# Blender v2.81 (sub 16) OBJ File: 'DnDModels.blend'
# www.blender.org
mtllib D4.mtl
o d4_Cube.001
v 13.202862 0.355068 0.923560
v 12.719330 -1.175753 -0.228979
v 11.668503 0.426321 -0.304285
v 13.489836 0.300729 -1.083630
vt 0.505264 0.490168
vt 0.007467 0.240118
vt 0.505264 0.007244
vt 0.992904 0.007319
vt 0.992904 0.495268
vt 0.519827 0.260996
vt 0.474792 0.983977
vt 0.474792 0.504603
vt 0.007017 0.765152
vt 0.519628 0.740389
vt 0.979381 0.992756
vt 0.979381 0.509831
vn 0.9088 -0.3929 0.1406
vn 0.0610 0.9980 -0.0183
vn -0.5940 -0.3557 0.7216
vn -0.3928 -0.2985 -0.8698
usemtl Material.003
s off
f 4/1/1 1/2/1 2/3/1
f 1/4/2 4/5/2 3/6/2
f 2/7/3 1/8/3 3/9/3
f 3/10/4 4/11/4 2/12/4
